<svg xmlns="http://www.w3.org/2000/svg" xmlns:xlink="http://www.w3.org/1999/xlink" width="104.88" viewBox="0 0 104.88 128.25" height="128.25" version="1.0"><defs><g id="h"><path d="M -0.203125 -14.96875 L -0.203125 -17.71875 L 20.125 -17.71875 L 20.125 -14.96875 L 17.96875 -14.96875 L 17.96875 1.609375 L 14.421875 0 L 14.421875 -4.921875 L 8.5 -4.921875 C 8.5 -3.953125 8.367188 -3.128906 8.109375 -2.453125 C 7.859375 -1.785156 7.546875 -1.3125 7.171875 -1.03125 C 6.796875 -0.757812 6.390625 -0.582031 5.953125 -0.5 C 5.515625 -0.414062 5.132812 -0.398438 4.8125 -0.453125 C 4.488281 -0.515625 4.226562 -0.613281 4.03125 -0.75 C 2.789062 -1.582031 1.78125 -2.46875 1 -3.40625 C 0.8125 -3.632812 0.6875 -3.929688 0.625 -4.296875 C 0.570312 -4.660156 0.601562 -5.050781 0.71875 -5.46875 C 0.832031 -5.882812 1.035156 -6.28125 1.328125 -6.65625 C 1.628906 -7.03125 2.09375 -7.328125 2.71875 -7.546875 C 3.34375 -7.765625 4.085938 -7.851562 4.953125 -7.8125 L 4.953125 -14.96875 Z M 8.5 -7.734375 L 14.421875 -7.75 L 14.421875 -14.96875 L 8.5 -14.96875 Z M 4.921875 -5.03125 C 4.328125 -5.113281 3.847656 -5.046875 3.484375 -4.828125 C 3.128906 -4.617188 2.945312 -4.367188 2.9375 -4.078125 C 2.925781 -3.796875 3 -3.535156 3.15625 -3.296875 C 3.320312 -3.160156 3.535156 -3.066406 3.796875 -3.015625 C 4.066406 -2.972656 4.320312 -3.128906 4.5625 -3.484375 C 4.800781 -3.847656 4.921875 -4.363281 4.921875 -5.03125 Z M 4.921875 -5.03125"/></g><g id="i"><path d="M -0.140625 -14.96875 L -0.140625 -17.71875 L 7.78125 -17.71875 L 7.78125 -14.96875 L 5.578125 -14.96875 L 5.578125 1.609375 L 2.03125 0 L 2.03125 -14.96875 Z M -0.140625 -14.96875"/></g><g id="j"><path d="M -0.25 -14.96875 L -0.25 -17.71875 L 12.765625 -17.71875 L 12.765625 -14.96875 L 8.984375 -14.96875 C 9.878906 -13.613281 10.390625 -12.242188 10.515625 -10.859375 C 10.640625 -9.472656 10.316406 -8.1875 9.546875 -7 C 8.773438 -5.820312 7.585938 -4.9375 5.984375 -4.34375 C 7.378906 -2.320312 9.351562 -0.679688 11.90625 0.578125 L 11.109375 1.609375 C 10.234375 1.109375 9.472656 0.648438 8.828125 0.234375 C 8.191406 -0.171875 7.425781 -0.707031 6.53125 -1.375 C 5.632812 -2.039062 4.863281 -2.691406 4.21875 -3.328125 C 3.582031 -3.972656 2.957031 -4.734375 2.34375 -5.609375 C 1.738281 -6.484375 1.269531 -7.378906 0.9375 -8.296875 C 1.363281 -9.503906 1.804688 -10.375 2.265625 -10.90625 C 2.429688 -11.113281 2.742188 -11.101562 3.203125 -10.875 C 3.660156 -10.644531 4.070312 -10.359375 4.4375 -10.015625 C 4.570312 -9.878906 4.691406 -9.539062 4.796875 -9 C 4.898438 -8.457031 5.007812 -8.050781 5.125 -7.78125 C 5.882812 -8.03125 6.472656 -8.425781 6.890625 -8.96875 C 7.316406 -9.519531 7.566406 -10.132812 7.640625 -10.8125 C 7.710938 -11.5 7.695312 -12.1875 7.59375 -12.875 C 7.488281 -13.5625 7.304688 -14.257812 7.046875 -14.96875 Z M -0.25 -14.96875"/></g><g id="k"><path d="M 11.3125 -0.03125 L 11.3125 -4.03125 C 10.164062 -2.695312 9 -2.03125 7.8125 -2.03125 C 5.539062 -2.03125 3.460938 -3.863281 1.578125 -7.53125 C 1.171875 -8.289062 1.410156 -9.203125 2.296875 -10.265625 C 3.191406 -11.335938 4.265625 -12.179688 5.515625 -12.796875 C 6.773438 -13.410156 7.6875 -13.535156 8.25 -13.171875 C 9.195312 -12.460938 10.21875 -11.765625 11.3125 -11.078125 L 11.3125 -14.96875 L -0.203125 -14.96875 L -0.203125 -17.71875 L 17.03125 -17.71875 L 17.03125 -14.96875 L 14.890625 -14.96875 L 14.890625 1.578125 Z M 4.34375 -5.75 C 4.5625 -5.5 4.890625 -5.296875 5.328125 -5.140625 C 5.765625 -4.992188 6.296875 -4.914062 6.921875 -4.90625 C 7.554688 -4.894531 8.269531 -5.128906 9.0625 -5.609375 C 9.851562 -6.085938 10.601562 -6.800781 11.3125 -7.75 L 11.3125 -9.5625 C 9.851562 -10.289062 8.53125 -10.453125 7.34375 -10.046875 C 6.164062 -9.648438 5.25 -8.960938 4.59375 -7.984375 C 3.9375 -7.015625 3.851562 -6.269531 4.34375 -5.75 Z M 4.34375 -5.75"/></g><g id="l"><path d="M -0.6875 -14.96875 L -0.6875 -17.71875 L 18.171875 -17.71875 L 18.171875 -14.96875 L 12.859375 -14.96875 L 12.859375 -11.140625 L 6.53125 -11.140625 C 6.09375 -11.140625 5.726562 -10.765625 5.4375 -10.015625 C 5.09375 -9.140625 5.101562 -8.441406 5.46875 -7.921875 C 5.71875 -7.566406 6.144531 -7.460938 6.75 -7.609375 C 6.925781 -7.648438 7.585938 -7.847656 8.734375 -8.203125 C 9.878906 -8.554688 10.847656 -8.820312 11.640625 -9 C 12.429688 -9.1875 12.882812 -9.226562 13 -9.125 C 14.195312 -8.113281 15.359375 -6.742188 16.484375 -5.015625 C 16.597656 -4.816406 16.664062 -4.566406 16.6875 -4.265625 C 16.707031 -3.972656 16.65625 -3.65625 16.53125 -3.3125 C 16.40625 -2.976562 16.226562 -2.628906 16 -2.265625 C 15.769531 -1.898438 15.457031 -1.550781 15.0625 -1.21875 C 14.675781 -0.882812 14.234375 -0.582031 13.734375 -0.3125 C 13.242188 -0.0507812 12.648438 0.160156 11.953125 0.328125 C 11.253906 0.492188 10.503906 0.578125 9.703125 0.578125 C 8.765625 0.578125 7.816406 0.375 6.859375 -0.03125 C 5.910156 -0.445312 5.101562 -0.910156 4.4375 -1.421875 C 3.769531 -1.941406 3.113281 -2.554688 2.46875 -3.265625 C 1.832031 -3.972656 1.375 -4.515625 1.09375 -4.890625 C 0.820312 -5.273438 0.582031 -5.628906 0.375 -5.953125 L 0.9375 -6.5 C 1.269531 -6.113281 1.628906 -5.726562 2.015625 -5.34375 C 2.410156 -4.96875 2.957031 -4.484375 3.65625 -3.890625 C 4.363281 -3.296875 5.160156 -2.816406 6.046875 -2.453125 C 6.941406 -2.097656 7.804688 -1.921875 8.640625 -1.921875 C 9.828125 -1.921875 10.941406 -2.179688 11.984375 -2.703125 C 13.035156 -3.234375 13.71875 -3.8125 14.03125 -4.4375 C 14.351562 -5.0625 14.3125 -5.65625 13.90625 -6.21875 C 13.601562 -6.519531 13.097656 -6.570312 12.390625 -6.375 C 11.679688 -6.1875 10.972656 -5.898438 10.265625 -5.515625 C 9.566406 -5.140625 8.847656 -4.847656 8.109375 -4.640625 C 7.378906 -4.441406 6.84375 -4.476562 6.5 -4.75 C 4.4375 -6.445312 3.050781 -7.660156 2.34375 -8.390625 C 2 -8.878906 1.890625 -9.488281 2.015625 -10.21875 C 2.140625 -10.945312 2.441406 -11.640625 2.921875 -12.296875 C 3.410156 -12.953125 3.90625 -13.300781 4.40625 -13.34375 L 9.640625 -13.65625 L 9.640625 -14.96875 Z M 3.78125 4.234375 C 2.75 3.753906 1.984375 3.007812 1.484375 2 C 1.523438 1.675781 1.828125 1.257812 2.390625 0.75 C 2.953125 0.25 3.394531 -0.0351562 3.71875 -0.109375 C 4.769531 0.347656 5.523438 1.0625 5.984375 2.03125 C 5.679688 2.894531 4.945312 3.628906 3.78125 4.234375 Z M 3.78125 4.234375"/></g><g id="m"><path d="M -4.203125 -17.296875 L -6.4375 -17.3125 C -7.195312 -18 -7.820312 -18.738281 -8.3125 -19.53125 C -8.800781 -20.320312 -8.882812 -20.988281 -8.5625 -21.53125 C -8.039062 -22.363281 -7.304688 -23.101562 -6.359375 -23.75 C -5.421875 -24.40625 -4.445312 -24.734375 -3.4375 -24.734375 C -3.144531 -24.734375 -2.820312 -24.609375 -2.46875 -24.359375 C -2.125 -24.109375 -1.726562 -23.726562 -1.28125 -23.21875 C -0.84375 -22.71875 -0.425781 -22.210938 -0.03125 -21.703125 C 0.351562 -21.203125 0.84375 -20.550781 1.4375 -19.75 C 2.039062 -18.945312 2.5625 -18.269531 3 -17.71875 L 6.671875 -17.71875 L 6.671875 -14.96875 L 4.46875 -14.96875 L 4.46875 1.578125 L 0.921875 -0.03125 L 0.921875 -14.96875 L -1.265625 -14.96875 L -1.265625 -17.71875 L 1.484375 -17.71875 L -0.484375 -20.015625 C -1.128906 -20.734375 -1.757812 -21.265625 -2.375 -21.609375 C -2.988281 -21.953125 -3.515625 -22.109375 -3.953125 -22.078125 C -4.390625 -22.054688 -4.773438 -21.941406 -5.109375 -21.734375 C -5.441406 -21.535156 -5.6875 -21.285156 -5.84375 -20.984375 C -6.007812 -20.691406 -6.078125 -20.425781 -6.046875 -20.1875 C -5.984375 -19.476562 -5.367188 -18.515625 -4.203125 -17.296875 Z M -4.203125 -17.296875"/></g><g id="n"><path d="M 7.675781 -3.558594 C 7.078125 -6.796875 6.691406 -10.070312 6.410156 -13.347656 C 6.199219 -16.058594 6.023438 -18.769531 5.777344 -21.480469 C 5.707031 -22.292969 5.5625 -23.101562 5.457031 -23.945312 C 5.386719 -24.40625 5.140625 -24.546875 4.683594 -24.511719 C 4.15625 -24.441406 3.628906 -24.40625 3.097656 -24.335938 C 2.289062 -24.230469 2.21875 -24.160156 2.078125 -23.382812 C 1.867188 -22.292969 1.761719 -21.199219 1.761719 -20.109375 C 1.726562 -17.820312 1.867188 -15.53125 2.007812 -13.242188 C 2.21875 -9.613281 2.816406 -6.058594 3.980469 -2.605469 C 4.367188 -1.410156 4.824219 -0.246094 5.492188 0.84375 C 6.09375 1.832031 6.761719 2.113281 7.886719 1.9375 C 8.453125 1.867188 8.804688 1.621094 8.945312 1.054688 C 9.15625 0.351562 9.402344 -0.316406 9.578125 -1.019531 C 10.882812 -5.5625 11.972656 -10.140625 13.207031 -14.71875 C 13.277344 -15.039062 13.382812 -15.390625 13.488281 -15.742188 C 13.804688 -15.566406 13.734375 -15.285156 13.804688 -15.074219 C 14.15625 -13.558594 14.71875 -12.113281 15.671875 -10.8125 C 16.375 -9.894531 17.292969 -9.261719 18.453125 -9.015625 C 19.015625 -8.910156 19.617188 -8.804688 20.214844 -8.769531 C 20.882812 -8.734375 21.550781 -8.839844 22.152344 -9.15625 C 22.363281 -9.296875 22.574219 -9.402344 22.574219 -9.683594 C 22.574219 -10.210938 22.363281 -10.496094 21.65625 -10.285156 C 20.039062 -9.789062 19.332031 -10.070312 18.382812 -11.445312 C 17.398438 -12.890625 16.867188 -14.472656 16.585938 -16.164062 C 16.234375 -18.453125 16.269531 -20.742188 16.375 -23.03125 C 16.410156 -23.523438 16.410156 -24.019531 16.410156 -24.511719 C 16.410156 -24.828125 16.304688 -25.109375 15.917969 -25.179688 C 15.003906 -25.390625 14.4375 -25.074219 14.121094 -24.160156 C 11.972656 -17.714844 10.140625 -11.164062 8.417969 -4.578125 C 8.277344 -4.050781 8.207031 -3.523438 7.886719 -2.921875 C 7.78125 -3.238281 7.710938 -3.414062 7.675781 -3.558594 Z M 7.675781 -3.558594"/></g><g id="o"><path d="M 10.355469 -10.285156 C 9.753906 -10.496094 9.683594 -10.496094 9.332031 -9.859375 C 9.296875 -9.753906 9.226562 -9.613281 9.15625 -9.507812 C 7.996094 -7.21875 6.832031 -4.964844 5.667969 -2.675781 C 5.457031 -2.253906 5.246094 -1.867188 5 -1.480469 C 4.648438 -0.949219 4.332031 -0.984375 4.015625 -1.515625 C 3.734375 -2.042969 3.558594 -2.640625 3.453125 -3.203125 C 3.203125 -4.71875 3.203125 -6.269531 3.132812 -7.78125 C 3.027344 -10.566406 3.308594 -13.347656 3.523438 -16.128906 C 3.628906 -17.503906 3.59375 -17.539062 2.148438 -17.574219 C 2.078125 -17.574219 1.972656 -17.574219 1.867188 -17.574219 C 1.515625 -17.609375 1.304688 -17.46875 1.199219 -17.117188 C 1.089844 -16.832031 0.949219 -16.585938 0.878906 -16.269531 C 0.210938 -13.664062 -0.210938 -11.023438 -0.210938 -8.136719 C -0.246094 -6.796875 -0.140625 -5.28125 0.210938 -3.769531 C 0.457031 -2.816406 0.773438 -1.9375 1.375 -1.164062 C 2.851562 0.738281 5.917969 0.5625 7.113281 -1.515625 C 7.429688 -2.078125 7.710938 -2.710938 7.957031 -3.308594 C 8.839844 -5.316406 9.71875 -7.324219 10.601562 -9.332031 C 10.742188 -9.71875 10.917969 -10.070312 10.355469 -10.285156 Z M 2.921875 -19.441406 C 3.875 -19.476562 4.4375 -20.003906 4.4375 -20.882812 C 4.4375 -21.730469 3.839844 -22.257812 2.816406 -22.222656 C 2.042969 -22.222656 1.410156 -21.480469 1.445312 -20.636719 C 1.445312 -19.828125 1.9375 -19.441406 2.921875 -19.441406 Z M 2.921875 -19.441406"/></g><g id="p"><path d="M 14.753906 -10.210938 C 14.191406 -10.601562 13.910156 -10.601562 13.558594 -10.175781 C 13.207031 -9.753906 12.925781 -9.332031 12.609375 -8.910156 C 11.128906 -6.832031 9.578125 -4.789062 7.921875 -2.851562 C 7.640625 -2.5 7.359375 -2.183594 6.972656 -1.9375 C 6.445312 -1.585938 6.023438 -1.621094 5.5625 -2.113281 C 5.28125 -2.429688 5.035156 -2.816406 4.929688 -3.203125 C 4.332031 -5.105469 3.875 -7.042969 3.804688 -9.050781 C 3.804688 -9.542969 3.945312 -9.753906 4.4375 -9.894531 C 7.183594 -10.707031 8.699219 -12.574219 9.121094 -15.355469 C 9.332031 -16.902344 8.875 -18.207031 7.570312 -19.121094 C 6.304688 -20.003906 4.929688 -19.828125 3.628906 -19.085938 C 2.464844 -18.382812 1.621094 -17.363281 0.984375 -16.164062 C -0.0703125 -14.121094 -0.492188 -11.9375 -0.597656 -9.648438 C -0.632812 -8.910156 -0.527344 -8.207031 -0.386719 -7.464844 C -0.0703125 -5.492188 0.632812 -3.664062 1.9375 -2.078125 C 3.558594 -0.105469 7.605469 0.527344 9.613281 -2.183594 C 11.375 -4.542969 13.101562 -6.9375 14.753906 -9.402344 C 14.933594 -9.648438 15.179688 -9.929688 14.753906 -10.210938 Z M 4.402344 -14.542969 C 4.613281 -15.425781 4.929688 -16.304688 5.28125 -17.152344 C 5.386719 -17.433594 5.5625 -17.75 5.917969 -17.714844 C 6.234375 -17.679688 6.375 -17.398438 6.515625 -17.117188 C 6.515625 -17.042969 6.550781 -16.972656 6.550781 -16.902344 C 7.148438 -15.074219 6.058594 -12.148438 4.402344 -11.164062 C 4.261719 -11.058594 4.085938 -10.988281 3.839844 -11.058594 C 3.839844 -12.21875 4.121094 -13.382812 4.402344 -14.542969 Z M 4.402344 -14.542969"/></g><g id="q"><path d="M 9.015625 -6.867188 C 9.191406 -5.632812 9.472656 -4.402344 9.964844 -3.203125 C 10.355469 -2.148438 10.882812 -1.164062 11.691406 -0.351562 C 13.875 1.867188 17.328125 1.304688 18.664062 -1.480469 C 19.261719 -2.710938 19.582031 -4.015625 19.863281 -5.351562 C 20.074219 -6.480469 20.25 -7.640625 20.390625 -8.804688 C 20.460938 -9.226562 20.601562 -9.367188 21.023438 -9.296875 C 21.515625 -9.191406 22.011719 -9.121094 22.503906 -9.015625 C 23.804688 -8.804688 25.074219 -8.769531 26.378906 -8.980469 C 26.941406 -9.085938 27.046875 -9.261719 27.011719 -9.859375 C 27.011719 -10.425781 26.625 -10.390625 26.273438 -10.390625 C 26.09375 -10.390625 25.917969 -10.355469 25.742188 -10.320312 C 24.40625 -10.140625 23.101562 -10.390625 21.800781 -10.636719 C 20.8125 -10.847656 20.601562 -11.234375 20.601562 -12.253906 C 20.601562 -13.769531 20.53125 -15.25 20.285156 -16.726562 C 20.074219 -17.820312 19.792969 -18.875 19.191406 -19.792969 C 18.488281 -20.917969 17.363281 -21.269531 16.269531 -20.742188 C 15.53125 -20.390625 15.074219 -19.828125 14.824219 -19.050781 C 14.542969 -18.207031 14.542969 -17.328125 14.71875 -16.480469 C 15.179688 -14.261719 16.269531 -12.394531 17.890625 -10.847656 C 18.3125 -10.425781 18.453125 -10.035156 18.417969 -9.4375 C 18.242188 -7.394531 17.890625 -5.386719 17.222656 -3.414062 C 17.007812 -2.851562 16.726562 -2.324219 16.480469 -1.761719 C 16.304688 -1.375 16.058594 -0.984375 15.566406 -0.984375 C 15.003906 -0.984375 14.824219 -1.410156 14.683594 -1.832031 C 14.472656 -2.324219 14.261719 -2.851562 14.085938 -3.414062 C 13.136719 -6.9375 12.359375 -10.496094 12.078125 -14.15625 C 11.902344 -16.058594 11.726562 -16.234375 9.824219 -16.164062 C 9.085938 -16.164062 9.015625 -16.09375 8.839844 -15.320312 C 7.921875 -10.671875 6.550781 -6.128906 5.28125 -1.550781 C 5.140625 -1.125 5.175781 -0.421875 4.648438 -0.492188 C 4.15625 -0.527344 4.191406 -1.199219 4.121094 -1.65625 C 3.523438 -5.457031 3.628906 -9.261719 3.804688 -13.066406 C 3.839844 -14.226562 3.980469 -15.390625 4.050781 -16.550781 C 4.085938 -17.46875 3.910156 -17.644531 2.957031 -17.644531 C 2.605469 -17.644531 2.253906 -17.574219 1.867188 -17.574219 C 1.410156 -17.609375 1.125 -17.363281 1.019531 -16.9375 C 0.949219 -16.691406 0.878906 -16.480469 0.808594 -16.269531 C -0.210938 -12.007812 -0.492188 -7.710938 0.105469 -3.414062 C 0.316406 -1.726562 0.773438 -0.0703125 1.550781 1.445312 C 1.902344 2.148438 2.429688 2.570312 3.238281 2.675781 C 4.753906 2.851562 5.457031 2.5 6.09375 1.089844 C 6.867188 -0.703125 7.394531 -2.570312 7.886719 -4.472656 C 8.171875 -5.492188 8.453125 -6.515625 8.769531 -7.710938 C 9.015625 -7.324219 9.015625 -7.078125 9.015625 -6.867188 Z M 17.539062 -18.066406 C 18.171875 -17.078125 18.207031 -15.988281 18.3125 -14.898438 C 17.75 -15.847656 17.363281 -16.902344 17.539062 -18.066406 Z M 17.539062 -18.066406"/></g><g id="r"><path d="M 3.453125 -15.390625 C 4.367188 -13.207031 5.28125 -11.023438 5.988281 -8.804688 C 6.375 -7.570312 6.375 -7.570312 5.175781 -7.007812 C 3.839844 -6.375 2.605469 -5.632812 1.726562 -4.402344 C 0.246094 -2.253906 1.019531 0.351562 3.488281 1.199219 C 5.351562 1.832031 7.148438 1.65625 8.839844 0.5625 C 9.753906 -0.0351562 10.390625 -0.878906 10.671875 -1.972656 C 10.917969 -2.957031 11.023438 -3.980469 10.847656 -5.035156 C 10.742188 -5.5625 10.671875 -6.058594 10.566406 -6.585938 C 10.390625 -7.5 10.390625 -7.5 11.269531 -7.851562 C 11.761719 -8.03125 12.253906 -8.242188 12.75 -8.453125 C 13.628906 -8.910156 14.472656 -9.472656 15.25 -10.070312 C 15.460938 -10.246094 15.707031 -10.425781 15.566406 -10.742188 C 15.390625 -11.058594 15.074219 -11.128906 14.71875 -11.058594 C 14.402344 -10.988281 14.15625 -10.8125 13.945312 -10.636719 C 12.960938 -9.964844 11.9375 -9.4375 10.847656 -9.015625 C 10.035156 -8.664062 10 -8.664062 9.753906 -9.507812 C 8.734375 -12.609375 7.183594 -15.425781 5.492188 -18.171875 C 5.070312 -18.875 4.507812 -19.476562 3.839844 -19.96875 C 2.851562 -20.707031 2.148438 -20.425781 1.867188 -19.261719 C 1.65625 -18.417969 1.480469 -17.574219 1.304688 -16.726562 C 0.175781 -11.65625 -0.773438 -6.515625 -2.464844 -1.585938 C -2.710938 -0.949219 -2.886719 -0.316406 -3.097656 0.316406 C -3.273438 0.738281 -3.097656 0.878906 -2.675781 0.949219 C -1.902344 1.089844 -1.691406 1.019531 -1.339844 0.175781 C 0.28125 -3.839844 1.585938 -7.957031 2.394531 -12.183594 C 2.605469 -13.382812 2.746094 -14.578125 3.132812 -15.917969 C 3.308594 -15.636719 3.414062 -15.53125 3.453125 -15.390625 Z M 6.9375 -0.949219 C 6.480469 0.28125 5.421875 0.5625 4.402344 -0.210938 C 3.414062 -0.949219 3.0625 -2.113281 3.523438 -3.308594 C 4.015625 -4.648438 5.070312 -5.421875 6.269531 -6.058594 C 6.621094 -6.199219 6.796875 -6.058594 6.867188 -5.742188 C 7.078125 -4.824219 7.253906 -3.910156 7.253906 -2.886719 C 7.289062 -2.289062 7.183594 -1.585938 6.9375 -0.949219 Z M 6.9375 -0.949219"/></g><clipPath id="a"><path d="M 53.164062 21.660156 L 54.90625 21.660156 L 54.90625 24.605469 L 53.164062 24.605469 Z M 53.164062 21.660156"/></clipPath><clipPath id="b"><path d="M 46 23 L 48 23 L 48 24.605469 L 46 24.605469 Z M 46 23"/></clipPath><clipPath id="c"><path d="M 49 23 L 50 23 L 50 24.605469 L 49 24.605469 Z M 49 23"/></clipPath><clipPath id="d"><path d="M 17.5 21 L 44 21 L 44 24 L 17.5 24 Z M 17.5 21"/></clipPath><clipPath id="e"><path d="M 60 23 L 62 23 L 62 24.605469 L 60 24.605469 Z M 60 23"/></clipPath><clipPath id="f"><path d="M 58 23 L 60 23 L 60 24.605469 L 58 24.605469 Z M 58 23"/></clipPath><clipPath id="g"><path d="M 65 21 L 90.570312 21 L 90.570312 24 L 65 24 Z M 65 21"/></clipPath></defs><path fill="#D9D9D9" d="M 96.648438 7.582031 C 98.535156 7.582031 100.082031 9.125 100.082031 11.003906 L 100.082031 116.40625 C 100.082031 118.285156 98.535156 119.832031 96.648438 119.832031 L 8.4375 119.832031 C 6.554688 119.832031 5.007812 118.285156 5.007812 116.40625 L 5.007812 11.003906 C 5.007812 9.125 6.554688 7.582031 8.4375 7.582031 L 96.648438 7.582031 M 96.648438 4.425781 L 8.4375 4.425781 C 4.804688 4.425781 1.84375 7.378906 1.84375 11.003906 L 1.84375 116.40625 C 1.84375 120.03125 4.804688 122.984375 8.4375 122.984375 L 96.648438 122.984375 C 100.28125 122.984375 103.242188 120.03125 103.242188 116.40625 L 103.242188 11.003906 C 103.242188 7.378906 100.28125 4.425781 96.648438 4.425781 Z M 96.648438 4.425781"/><path fill="#EB8C14" d="M 44.863281 14.804688 C 45.558594 14.8125 46.320312 14.253906 46.894531 13.933594 C 48.550781 13.003906 49.980469 13.296875 51.703125 13.730469 C 51.980469 13.800781 52.152344 13.410156 51.898438 13.261719 C 50.683594 12.554688 49.34375 12.480469 48 12.804688 C 47.230469 12.988281 46.53125 13.433594 45.855469 13.824219 C 45.023438 14.304688 43.742188 14.324219 43.402344 13.246094 C 43.378906 13.09375 43.363281 12.941406 43.339844 12.789062 C 43.390625 11.820312 45.0625 11.789062 44.339844 13.199219 C 44.246094 13.316406 44.390625 13.46875 44.507812 13.367188 C 46.160156 11.957031 43.089844 10.445312 42.863281 12.789062 C 42.742188 14.042969 43.71875 14.792969 44.863281 14.804688"/><path fill="#EB8C14" d="M 53.839844 12.246094 C 54.082031 12.679688 54.324219 13.078125 54.367188 13.636719 C 54.40625 14.164062 54.238281 14.683594 54.023438 15.164062 C 53.730469 14.777344 53.449219 14.371094 53.3125 13.917969 C 53.152344 13.371094 53.515625 12.75 53.839844 12.246094 Z M 54.359375 15.929688 C 55.035156 14.617188 55.347656 12.761719 54.128906 11.675781 C 54.09375 11.4375 53.726562 11.292969 53.554688 11.558594 C 53.136719 12.214844 52.660156 12.910156 52.644531 13.71875 C 52.632812 14.542969 53.351562 15.320312 53.808594 15.929688 C 53.941406 16.105469 54.238281 16.164062 54.359375 15.929688"/><g clip-path="url(#a)"><path fill="#EB8C14" d="M 54.050781 22.511719 C 54.121094 22.671875 54.1875 22.832031 54.195312 23.027344 C 54.207031 23.253906 54.144531 23.472656 54.050781 23.679688 C 53.9375 23.5 53.847656 23.308594 53.832031 23.117188 C 53.8125 22.917969 53.917969 22.703125 54.050781 22.511719 Z M 53.816406 21.800781 C 53.519531 22.195312 53.207031 22.605469 53.191406 23.117188 C 53.179688 23.601562 53.558594 24.078125 53.808594 24.453125 C 53.9375 24.65625 54.230469 24.667969 54.359375 24.453125 C 54.625 24.011719 54.8125 23.550781 54.808594 23.027344 C 54.804688 22.660156 54.660156 22.210938 54.398438 21.929688 C 54.375 21.695312 54 21.554688 53.816406 21.800781"/></g><path fill="#EB8C14" d="M 43.300781 15.542969 C 43.515625 15.5 43.621094 15.320312 43.632812 15.132812 C 43.664062 14.980469 43.632812 14.824219 43.507812 14.691406 C 43.3125 14.480469 43.023438 14.53125 42.820312 14.691406 C 42.640625 14.835938 42.613281 15.125 42.726562 15.316406 C 42.847656 15.527344 43.074219 15.585938 43.300781 15.542969"/><path fill="#EB8C14" d="M 41.257812 15.40625 C 41.414062 15.375 41.492188 15.246094 41.5 15.109375 C 41.523438 15 41.5 14.886719 41.410156 14.792969 C 41.269531 14.640625 41.058594 14.675781 40.914062 14.792969 C 40.785156 14.894531 40.761719 15.105469 40.84375 15.242188 C 40.933594 15.394531 41.097656 15.4375 41.257812 15.40625"/><path fill="#EB8C14" d="M 37.109375 16.703125 C 37.226562 16.703125 37.226562 16.523438 37.109375 16.523438 C 36.992188 16.523438 36.992188 16.703125 37.109375 16.703125"/><path fill="#EB8C14" d="M 38.386719 16.296875 C 38.703125 16.296875 38.703125 15.804688 38.386719 15.804688 C 38.070312 15.804688 38.070312 16.296875 38.386719 16.296875"/><path fill="#EB8C14" d="M 39.828125 15.753906 C 39.847656 15.738281 39.867188 15.726562 39.882812 15.714844 C 40.042969 15.597656 40.042969 15.398438 39.882812 15.285156 C 39.867188 15.273438 39.847656 15.257812 39.828125 15.246094 C 39.644531 15.109375 39.386719 15.292969 39.386719 15.5 C 39.386719 15.707031 39.644531 15.886719 39.828125 15.753906"/><path fill="#EB8C14" d="M 51.011719 12.308594 C 51.230469 12.28125 51.351562 12.109375 51.375 11.921875 C 51.417969 11.773438 51.398438 11.617188 51.285156 11.476562 C 51.105469 11.25 50.8125 11.277344 50.597656 11.425781 C 50.410156 11.554688 50.359375 11.839844 50.457031 12.039062 C 50.566406 12.257812 50.785156 12.335938 51.011719 12.308594"/><path fill="#EB8C14" d="M 49.488281 12.019531 C 49.648438 12 49.734375 11.878906 49.75 11.742188 C 49.78125 11.636719 49.765625 11.523438 49.683594 11.417969 C 49.554688 11.257812 49.34375 11.277344 49.1875 11.382812 C 49.050781 11.476562 49.015625 11.683594 49.085938 11.828125 C 49.164062 11.988281 49.324219 12.042969 49.488281 12.019531"/><path fill="#EB8C14" d="M 45.503906 13.007812 C 45.621094 13.015625 45.636719 12.835938 45.519531 12.824219 C 45.402344 12.816406 45.386719 13 45.503906 13.007812"/><path fill="#EB8C14" d="M 46.558594 12.695312 C 46.875 12.71875 46.910156 12.226562 46.59375 12.203125 C 46.277344 12.179688 46.242188 12.675781 46.558594 12.695312"/><path fill="#EB8C14" d="M 48.035156 12.261719 C 48.054688 12.25 48.074219 12.238281 48.09375 12.222656 C 48.257812 12.121094 48.273438 11.921875 48.125 11.796875 C 48.109375 11.78125 48.089844 11.769531 48.074219 11.753906 C 47.898438 11.605469 47.628906 11.769531 47.613281 11.972656 C 47.601562 12.179688 47.839844 12.382812 48.035156 12.261719"/><path fill="#EB8C14" d="M 27.808594 21.828125 C 28.023438 21.785156 28.132812 21.609375 28.140625 21.417969 C 28.171875 21.269531 28.140625 21.113281 28.015625 20.980469 C 27.820312 20.769531 27.53125 20.820312 27.328125 20.980469 C 27.152344 21.125 27.121094 21.410156 27.234375 21.605469 C 27.355469 21.816406 27.582031 21.875 27.808594 21.828125"/><path fill="#EB8C14" d="M 25.769531 21.832031 C 25.925781 21.800781 26.003906 21.671875 26.007812 21.535156 C 26.03125 21.429688 26.007812 21.316406 25.917969 21.21875 C 25.777344 21.066406 25.566406 21.101562 25.421875 21.21875 C 25.292969 21.324219 25.273438 21.53125 25.355469 21.671875 C 25.441406 21.824219 25.605469 21.867188 25.769531 21.832031"/><path fill="#EB8C14" d="M 21.617188 21.84375 C 21.734375 21.84375 21.734375 21.660156 21.617188 21.660156 C 21.5 21.660156 21.5 21.84375 21.617188 21.84375"/><path fill="#EB8C14" d="M 22.894531 21.84375 C 23.210938 21.84375 23.210938 21.347656 22.894531 21.347656 C 22.578125 21.347656 22.578125 21.84375 22.894531 21.84375"/><path fill="#EB8C14" d="M 44.332031 22.742188 C 44.109375 22.753906 43.980469 22.917969 43.945312 23.105469 C 43.890625 23.246094 43.902344 23.40625 44.007812 23.554688 C 44.171875 23.792969 44.46875 23.78125 44.6875 23.648438 C 44.886719 23.53125 44.953125 23.25 44.867188 23.046875 C 44.773438 22.820312 44.5625 22.730469 44.332031 22.742188"/><g clip-path="url(#b)"><path fill="#EB8C14" d="M 47.058594 23.40625 C 46.902344 23.417969 46.804688 23.535156 46.78125 23.667969 C 46.742188 23.773438 46.75 23.886719 46.828125 23.996094 C 46.945312 24.164062 47.160156 24.160156 47.320312 24.0625 C 47.460938 23.980469 47.511719 23.777344 47.449219 23.625 C 47.382812 23.464844 47.226562 23.398438 47.058594 23.40625"/></g><path fill="#EB8C14" d="M 52.347656 22.925781 C 52.230469 22.90625 52.207031 23.089844 52.324219 23.105469 C 52.4375 23.121094 52.464844 22.941406 52.347656 22.925781"/><path fill="#EB8C14" d="M 51.253906 23.195312 C 50.9375 23.148438 50.871094 23.640625 51.1875 23.683594 C 51.5 23.726562 51.566406 23.238281 51.253906 23.195312"/><g clip-path="url(#c)"><path fill="#EB8C14" d="M 49.253906 23.511719 C 49.230469 23.523438 49.210938 23.535156 49.191406 23.542969 C 49.019531 23.636719 48.992188 23.832031 49.132812 23.96875 C 49.148438 23.984375 49.167969 24 49.183594 24.015625 C 49.347656 24.175781 49.625 24.03125 49.652344 23.824219 C 49.683594 23.621094 49.453125 23.40625 49.253906 23.511719"/></g><path fill="#EB8C14" d="M 24.335938 21.796875 C 24.355469 21.785156 24.375 21.769531 24.394531 21.757812 C 24.550781 21.644531 24.550781 21.445312 24.394531 21.328125 C 24.375 21.316406 24.355469 21.300781 24.335938 21.289062 C 24.152344 21.152344 23.898438 21.335938 23.898438 21.542969 C 23.898438 21.75 24.152344 21.933594 24.335938 21.796875"/><g clip-path="url(#d)"><path fill="#EB8C14" d="M 42.660156 21.488281 C 40.757812 21.582031 38.871094 22.164062 36.980469 22.40625 C 35.113281 22.648438 33.234375 22.722656 31.355469 22.792969 C 29.246094 22.871094 27.132812 22.953125 25.027344 22.839844 C 22.671875 22.710938 20.289062 22.328125 17.933594 22.59375 C 17.757812 22.613281 17.753906 22.851562 17.933594 22.867188 C 22.554688 23.3125 27.105469 23.738281 31.753906 23.703125 C 33.625 23.6875 35.496094 23.570312 37.351562 23.351562 C 39.175781 23.132812 41.148438 22.902344 42.835938 22.148438 C 43.160156 22.003906 42.992188 21.472656 42.660156 21.488281"/></g><path fill="#EB8C14" d="M 56.367188 13.730469 C 58.089844 13.296875 59.519531 13.003906 61.175781 13.933594 C 61.75 14.253906 62.511719 14.8125 63.207031 14.804688 C 64.351562 14.792969 65.332031 14.042969 65.207031 12.789062 C 64.980469 10.445312 61.910156 11.957031 63.5625 13.367188 C 63.679688 13.46875 63.824219 13.320312 63.730469 13.199219 C 63.011719 11.789062 64.683594 11.820312 64.730469 12.789062 C 64.707031 12.941406 64.691406 13.09375 64.667969 13.246094 C 64.328125 14.324219 63.046875 14.304688 62.214844 13.828125 C 61.539062 13.433594 60.839844 12.988281 60.070312 12.804688 C 58.726562 12.480469 57.386719 12.554688 56.171875 13.261719 C 55.917969 13.410156 56.089844 13.800781 56.367188 13.730469"/><path fill="#EB8C14" d="M 40.960938 18.605469 C 40.082031 18.324219 39.203125 18.039062 38.320312 17.800781 C 38.453125 17.734375 38.589844 17.675781 38.730469 17.617188 C 39.777344 17.183594 40.929688 17.007812 42.058594 17.082031 C 42.21875 17.09375 42.371094 17.113281 42.515625 17.144531 C 41.984375 17.613281 41.476562 18.117188 40.960938 18.605469 Z M 39.050781 20.15625 C 37.523438 21.132812 36.140625 21.054688 34.8125 20.5 C 35.519531 19.683594 36.332031 18.964844 37.242188 18.390625 C 37.847656 18.574219 38.445312 18.792969 39.035156 19.011719 C 39.378906 19.136719 39.726562 19.265625 40.082031 19.390625 C 39.753906 19.664062 39.414062 19.925781 39.050781 20.15625 Z M 66.011719 17.082031 C 67.136719 16.945312 68.296875 17.226562 69.34375 17.617188 C 69.507812 17.679688 69.667969 17.75 69.832031 17.820312 C 69.378906 17.960938 68.933594 18.105469 68.488281 18.25 C 68.027344 18.398438 67.5625 18.542969 67.097656 18.683594 C 66.5625 18.1875 66.046875 17.664062 65.507812 17.171875 C 65.667969 17.132812 65.835938 17.101562 66.011719 17.082031 Z M 73.328125 20.570312 C 73.191406 20.632812 73.050781 20.695312 72.910156 20.75 C 71.589844 21.253906 70.1875 20.824219 69.019531 20.15625 C 68.636719 19.9375 68.277344 19.679688 67.933594 19.40625 C 68.308594 19.273438 68.675781 19.140625 69.035156 19.011719 C 69.65625 18.785156 70.269531 18.570312 70.882812 18.394531 C 71.796875 18.980469 72.621094 19.734375 73.328125 20.570312 Z M 64.371094 21.5 C 62.25 22.472656 59.253906 22.285156 57.0625 21.691406 C 55.746094 21.332031 54.492188 20.570312 54.324219 19.09375 C 54.324219 19.09375 54.324219 19.089844 54.324219 19.085938 C 54.339844 18.921875 54.339844 18.753906 54.324219 18.585938 C 54.496094 16.945312 56.394531 15.867188 57.804688 15.492188 C 59.761719 14.964844 61.953125 15.800781 63.613281 16.824219 C 62.957031 17.152344 62.382812 17.628906 61.964844 18.265625 C 61.761719 18.570312 62.148438 18.894531 62.4375 18.742188 C 63.210938 18.324219 63.84375 17.851562 64.566406 17.507812 C 65.113281 17.960938 65.613281 18.46875 66.117188 18.972656 C 65.011719 19.285156 63.894531 19.566406 62.761719 19.785156 C 61.015625 20.121094 59.136719 20.300781 57.464844 19.566406 C 57.042969 19.382812 56.691406 19.113281 56.445312 18.722656 C 56.304688 18.503906 56.132812 17.390625 56.625 17.359375 C 56.832031 17.34375 57.042969 17.515625 57.1875 17.648438 C 57.148438 17.648438 57.105469 17.652344 57.046875 17.660156 C 56.578125 17.726562 56.753906 18.386719 57.152344 18.429688 C 58.941406 18.625 57.800781 16.128906 56.246094 16.550781 C 55.34375 16.796875 55.285156 18.261719 55.574219 18.945312 C 56.097656 20.195312 57.480469 20.664062 58.707031 20.890625 C 61.3125 21.375 64.28125 20.628906 66.929688 19.75 C 67.167969 19.964844 67.414062 20.171875 67.671875 20.363281 C 69.695312 21.882812 71.90625 22.191406 73.839844 21.214844 C 74 21.429688 74.152344 21.648438 74.296875 21.871094 C 74.363281 21.972656 74.550781 21.90625 74.5 21.785156 C 74.398438 21.53125 74.277344 21.285156 74.148438 21.046875 C 74.78125 20.675781 75.378906 20.164062 75.929688 19.503906 C 76.101562 19.296875 75.871094 18.921875 75.621094 19.101562 C 74.992188 19.546875 74.386719 20.003906 73.722656 20.367188 C 73.152344 19.546875 72.417969 18.820312 71.605469 18.203125 C 72.457031 18.003906 73.332031 17.894531 74.257812 17.945312 C 75.320312 18 76.3125 18.40625 77.179688 19.007812 C 77.660156 19.34375 78.066406 19.789062 78.359375 20.292969 C 78.792969 21.039062 78.472656 21.5 77.398438 21.675781 C 76.996094 21.476562 76.910156 21.191406 77.128906 20.824219 C 77.320312 20.777344 77.265625 20.507812 77.085938 20.492188 C 76.316406 20.4375 76.339844 21.3125 76.742188 21.773438 C 77.398438 22.527344 78.441406 22.429688 78.898438 21.507812 C 79.402344 20.496094 78.171875 19.144531 77.546875 18.527344 C 76.429688 17.425781 74.769531 17.128906 73.265625 17.164062 C 72.390625 17.1875 71.53125 17.351562 70.6875 17.578125 C 70.238281 17.300781 69.777344 17.050781 69.320312 16.839844 C 67.976562 16.222656 66.1875 16.023438 64.636719 16.4375 C 64.484375 16.324219 64.332031 16.210938 64.175781 16.101562 C 61.398438 14.230469 56.761719 13.71875 54.507812 16.730469 C 54.308594 16.996094 54.152344 17.261719 54.03125 17.523438 C 53.914062 17.261719 53.757812 16.996094 53.558594 16.730469 C 51.253906 13.644531 46.75 14.339844 43.894531 16.101562 C 43.726562 16.207031 43.5625 16.320312 43.402344 16.433594 C 41.894531 16.050781 40.171875 16.25 38.835938 16.804688 C 38.34375 17.007812 37.851562 17.261719 37.371094 17.558594 C 36.527344 17.363281 35.671875 17.222656 34.804688 17.167969 C 33.226562 17.066406 31.734375 17.519531 30.523438 18.527344 C 29.859375 19.078125 28.691406 20.542969 29.171875 21.507812 C 29.628906 22.433594 30.671875 22.527344 31.328125 21.773438 C 31.726562 21.3125 31.753906 20.4375 30.984375 20.496094 C 30.804688 20.507812 30.75 20.777344 30.941406 20.824219 C 31.160156 21.191406 31.070312 21.476562 30.671875 21.675781 C 29.597656 21.5 29.273438 21.039062 29.707031 20.292969 C 29.996094 19.769531 30.421875 19.371094 30.890625 19.011719 C 31.730469 18.355469 32.769531 18.046875 33.8125 17.945312 C 34.71875 17.855469 35.601562 17.96875 36.464844 18.179688 C 35.671875 18.785156 34.953125 19.503906 34.386719 20.304688 C 33.734375 19.984375 33.09375 19.558594 32.449219 19.101562 C 32.195312 18.921875 31.964844 19.296875 32.140625 19.503906 C 32.6875 20.160156 33.285156 20.675781 33.921875 21.046875 C 33.789062 21.289062 33.671875 21.535156 33.570312 21.785156 C 33.519531 21.90625 33.707031 21.96875 33.773438 21.871094 C 33.921875 21.648438 34.074219 21.429688 34.234375 21.214844 C 36.058594 22.140625 38.148438 21.941406 40.113281 20.578125 C 40.476562 20.328125 40.820312 20.046875 41.148438 19.753906 C 43.796875 20.621094 46.703125 21.289062 49.363281 20.890625 C 50.582031 20.710938 51.984375 20.167969 52.496094 18.949219 C 52.785156 18.261719 52.726562 16.796875 51.824219 16.550781 C 50.269531 16.128906 49.128906 18.625 50.917969 18.429688 C 51.316406 18.386719 51.492188 17.726562 51.023438 17.660156 C 50.964844 17.652344 50.917969 17.648438 50.878906 17.648438 C 51.019531 17.492188 51.238281 17.378906 51.445312 17.359375 C 51.976562 17.304688 51.695312 18.5625 51.625 18.726562 C 51.441406 19.140625 50.984375 19.371094 50.605469 19.566406 C 49.015625 20.386719 46.980469 20.082031 45.308594 19.785156 C 44.191406 19.585938 43.097656 19.277344 42.007812 18.9375 C 42.511719 18.445312 43.007812 17.949219 43.542969 17.496094 C 44.257812 17.84375 44.890625 18.34375 45.632812 18.742188 C 45.921875 18.894531 46.308594 18.570312 46.105469 18.265625 C 45.683594 17.617188 45.105469 17.144531 44.449219 16.816406 C 46.046875 15.765625 48.082031 15.148438 49.964844 15.429688 C 51.632812 15.675781 53.472656 16.90625 53.730469 18.671875 C 53.71875 18.855469 53.726562 19.039062 53.75 19.214844 C 53.636719 20.496094 52.371094 21.234375 51.25 21.617188 C 49.074219 22.359375 45.832031 22.476562 43.699219 21.5 C 43.570312 21.441406 43.460938 21.617188 43.585938 21.691406 C 45.734375 22.964844 48.832031 22.886719 51.164062 22.269531 C 52.480469 21.917969 53.542969 21.128906 54.035156 20.117188 C 54.542969 21.109375 55.617188 21.882812 56.90625 22.269531 C 59.1875 22.949219 62.378906 22.9375 64.484375 21.691406 C 64.609375 21.617188 64.5 21.441406 64.371094 21.5"/><path fill="#EB8C14" d="M 64.5625 14.691406 C 64.4375 14.824219 64.40625 14.980469 64.4375 15.132812 C 64.449219 15.320312 64.554688 15.5 64.769531 15.542969 C 64.996094 15.585938 65.222656 15.527344 65.347656 15.316406 C 65.457031 15.125 65.429688 14.835938 65.25 14.691406 C 65.046875 14.53125 64.757812 14.480469 64.5625 14.691406"/><path fill="#EB8C14" d="M 66.8125 15.40625 C 66.976562 15.4375 67.136719 15.394531 67.226562 15.242188 C 67.308594 15.105469 67.285156 14.894531 67.15625 14.792969 C 67.011719 14.675781 66.800781 14.640625 66.660156 14.792969 C 66.570312 14.886719 66.546875 15 66.570312 15.109375 C 66.578125 15.246094 66.65625 15.375 66.8125 15.40625"/><path fill="#EB8C14" d="M 70.960938 16.703125 C 71.078125 16.703125 71.078125 16.523438 70.960938 16.523438 C 70.84375 16.523438 70.84375 16.703125 70.960938 16.703125"/><path fill="#EB8C14" d="M 69.683594 16.296875 C 70 16.296875 70 15.804688 69.683594 15.804688 C 69.367188 15.804688 69.367188 16.296875 69.683594 16.296875"/><path fill="#EB8C14" d="M 68.1875 15.714844 C 68.207031 15.726562 68.222656 15.742188 68.242188 15.753906 C 68.425781 15.886719 68.683594 15.707031 68.683594 15.5 C 68.683594 15.292969 68.425781 15.109375 68.242188 15.246094 C 68.222656 15.257812 68.207031 15.273438 68.1875 15.285156 C 68.027344 15.398438 68.027344 15.597656 68.1875 15.714844"/><path fill="#EB8C14" d="M 57.054688 12.308594 C 57.285156 12.335938 57.507812 12.257812 57.613281 12.039062 C 57.710938 11.839844 57.660156 11.554688 57.472656 11.425781 C 57.257812 11.277344 56.964844 11.25 56.785156 11.476562 C 56.675781 11.617188 56.652344 11.773438 56.695312 11.921875 C 56.71875 12.109375 56.835938 12.28125 57.054688 12.308594"/><path fill="#EB8C14" d="M 58.582031 12.019531 C 58.746094 12.042969 58.90625 11.988281 58.984375 11.828125 C 59.054688 11.683594 59.019531 11.476562 58.882812 11.382812 C 58.726562 11.277344 58.515625 11.257812 58.386719 11.417969 C 58.304688 11.523438 58.289062 11.636719 58.320312 11.742188 C 58.335938 11.878906 58.421875 12 58.582031 12.019531"/><path fill="#EB8C14" d="M 62.566406 13.007812 C 62.683594 13 62.667969 12.816406 62.550781 12.824219 C 62.4375 12.835938 62.449219 13.015625 62.566406 13.007812"/><path fill="#EB8C14" d="M 61.511719 12.695312 C 61.828125 12.675781 61.792969 12.179688 61.476562 12.203125 C 61.160156 12.226562 61.195312 12.71875 61.511719 12.695312"/><path fill="#EB8C14" d="M 59.976562 12.222656 C 59.996094 12.238281 60.015625 12.25 60.035156 12.261719 C 60.230469 12.382812 60.46875 12.179688 60.457031 11.972656 C 60.441406 11.769531 60.171875 11.605469 59.996094 11.753906 C 59.980469 11.769531 59.960938 11.78125 59.945312 11.796875 C 59.796875 11.921875 59.808594 12.121094 59.976562 12.222656"/><path fill="#EB8C14" d="M 80.261719 21.828125 C 80.488281 21.875 80.714844 21.816406 80.835938 21.605469 C 80.949219 21.410156 80.917969 21.125 80.742188 20.980469 C 80.539062 20.820312 80.25 20.769531 80.054688 20.980469 C 79.929688 21.113281 79.898438 21.269531 79.929688 21.417969 C 79.9375 21.609375 80.046875 21.785156 80.261719 21.828125"/><path fill="#EB8C14" d="M 82.300781 21.832031 C 82.464844 21.867188 82.628906 21.824219 82.71875 21.671875 C 82.796875 21.53125 82.777344 21.324219 82.648438 21.21875 C 82.503906 21.101562 82.292969 21.066406 82.152344 21.21875 C 82.0625 21.316406 82.039062 21.429688 82.0625 21.535156 C 82.066406 21.671875 82.144531 21.800781 82.300781 21.832031"/><path fill="#EB8C14" d="M 86.453125 21.84375 C 86.570312 21.84375 86.570312 21.660156 86.453125 21.660156 C 86.335938 21.660156 86.335938 21.84375 86.453125 21.84375"/><path fill="#EB8C14" d="M 85.175781 21.84375 C 85.492188 21.84375 85.492188 21.347656 85.175781 21.347656 C 84.859375 21.347656 84.859375 21.84375 85.175781 21.84375"/><path fill="#EB8C14" d="M 63.738281 22.742188 C 63.511719 22.730469 63.296875 22.820312 63.203125 23.046875 C 63.117188 23.25 63.183594 23.53125 63.382812 23.648438 C 63.601562 23.78125 63.898438 23.792969 64.0625 23.554688 C 64.167969 23.40625 64.179688 23.246094 64.125 23.105469 C 64.089844 22.917969 63.960938 22.753906 63.738281 22.742188"/><g clip-path="url(#e)"><path fill="#EB8C14" d="M 61.011719 23.40625 C 60.84375 23.398438 60.6875 23.464844 60.621094 23.625 C 60.558594 23.777344 60.609375 23.980469 60.75 24.0625 C 60.910156 24.160156 61.125 24.164062 61.242188 23.996094 C 61.320312 23.886719 61.328125 23.773438 61.289062 23.667969 C 61.265625 23.535156 61.167969 23.417969 61.011719 23.40625"/></g><path fill="#EB8C14" d="M 55.722656 22.925781 C 55.605469 22.941406 55.632812 23.121094 55.746094 23.105469 C 55.863281 23.089844 55.839844 22.90625 55.722656 22.925781"/><path fill="#EB8C14" d="M 56.816406 23.195312 C 56.503906 23.238281 56.570312 23.726562 56.886719 23.683594 C 57.199219 23.640625 57.132812 23.148438 56.816406 23.195312"/><g clip-path="url(#f)"><path fill="#EB8C14" d="M 58.878906 23.542969 C 58.859375 23.535156 58.839844 23.523438 58.820312 23.511719 C 58.617188 23.40625 58.386719 23.621094 58.417969 23.824219 C 58.445312 24.03125 58.722656 24.175781 58.886719 24.015625 C 58.902344 24 58.921875 23.984375 58.9375 23.96875 C 59.078125 23.832031 59.050781 23.636719 58.878906 23.542969"/></g><path fill="#EB8C14" d="M 83.675781 21.757812 C 83.695312 21.769531 83.714844 21.785156 83.734375 21.796875 C 83.917969 21.933594 84.171875 21.75 84.171875 21.542969 C 84.171875 21.335938 83.917969 21.152344 83.734375 21.289062 C 83.714844 21.300781 83.695312 21.316406 83.675781 21.328125 C 83.519531 21.445312 83.519531 21.644531 83.675781 21.757812"/><g clip-path="url(#g)"><path fill="#EB8C14" d="M 90.136719 22.59375 C 87.941406 22.34375 85.710938 22.660156 83.515625 22.808594 C 81.25 22.960938 78.984375 22.871094 76.714844 22.792969 C 74.957031 22.730469 73.207031 22.644531 71.457031 22.449219 C 69.4375 22.226562 67.4375 21.589844 65.410156 21.488281 C 65.078125 21.472656 64.910156 22.003906 65.234375 22.148438 C 66.929688 22.90625 68.890625 23.113281 70.71875 23.351562 C 72.570312 23.589844 74.449219 23.679688 76.316406 23.703125 C 80.964844 23.757812 85.515625 23.3125 90.136719 22.871094 C 90.316406 22.851562 90.3125 22.613281 90.136719 22.59375"/></g><g fill="#FFF"><use x="10.054" y="50.579" xmlns:xlink="http://www.w3.org/1999/xlink" xlink:href="#h" xlink:type="simple" xlink:actuate="onLoad" xlink:show="embed"/></g><g fill="#FFF"><use x="29.72" y="50.579" xmlns:xlink="http://www.w3.org/1999/xlink" xlink:href="#i" xlink:type="simple" xlink:actuate="onLoad" xlink:show="embed"/></g><g fill="#FFF"><use x="37.42" y="50.579" xmlns:xlink="http://www.w3.org/1999/xlink" xlink:href="#j" xlink:type="simple" xlink:actuate="onLoad" xlink:show="embed"/></g><g fill="#FFF"><use x="49.815" y="50.579" xmlns:xlink="http://www.w3.org/1999/xlink" xlink:href="#k" xlink:type="simple" xlink:actuate="onLoad" xlink:show="embed"/></g><g fill="#FFF"><use x="66.676" y="50.579" xmlns:xlink="http://www.w3.org/1999/xlink" xlink:href="#i" xlink:type="simple" xlink:actuate="onLoad" xlink:show="embed"/></g><g fill="#FFF"><use x="74.376" y="50.579" xmlns:xlink="http://www.w3.org/1999/xlink" xlink:href="#l" xlink:type="simple" xlink:actuate="onLoad" xlink:show="embed"/></g><g fill="#FFF"><use x="91.551" y="50.579" xmlns:xlink="http://www.w3.org/1999/xlink" xlink:href="#m" xlink:type="simple" xlink:actuate="onLoad" xlink:show="embed"/></g><g fill="#FF1616"><use x="10.698" y="96.869" xmlns:xlink="http://www.w3.org/1999/xlink" xlink:href="#n" xlink:type="simple" xlink:actuate="onLoad" xlink:show="embed"/></g><g fill="#FF1616"><use x="31.541" y="96.869" xmlns:xlink="http://www.w3.org/1999/xlink" xlink:href="#o" xlink:type="simple" xlink:actuate="onLoad" xlink:show="embed"/></g><g fill="#FF1616"><use x="40.942" y="96.869" xmlns:xlink="http://www.w3.org/1999/xlink" xlink:href="#p" xlink:type="simple" xlink:actuate="onLoad" xlink:show="embed"/></g><g fill="#FF1616"><use x="54.215" y="96.869" xmlns:xlink="http://www.w3.org/1999/xlink" xlink:href="#q" xlink:type="simple" xlink:actuate="onLoad" xlink:show="embed"/></g><g fill="#FF1616"><use x="80.305" y="96.869" xmlns:xlink="http://www.w3.org/1999/xlink" xlink:href="#r" xlink:type="simple" xlink:actuate="onLoad" xlink:show="embed"/></g></svg>